Coordinates
version=1
nRows=27
nColumns=34
inDegrees=no

Units are S.I. units (second, meters, Newtons, ...)
If the header above contains a line with 'inDegrees', this indicates whether rotational values are in degrees (yes) or radians (no).

endheader
time	pelvis_tilt	pelvis_list	pelvis_rotation	pelvis_tx	pelvis_ty	pelvis_tz	hip_flexion_r	hip_adduction_r	hip_rotation_r	knee_angle_r	ankle_angle_r	subtalar_angle_r	mtp_angle_r	hip_flexion_l	hip_adduction_l	hip_rotation_l	knee_angle_l	ankle_angle_l	subtalar_angle_l	mtp_angle_l	lumbar_extension	lumbar_bending	lumbar_rotation	arm_flex_r	arm_add_r	arm_rot_r	elbow_flex_r	pro_sup_r	arm_flex_l	arm_add_l	arm_rot_l	elbow_flex_l	pro_sup_l
0.85	0.0785567	0.109786	-0.0774462	0.812898	1.15042	-0.217897	-0.19331	-0.18763	-0.193595	0.679284	-0.136248	0.175495	-0.0178129	0.0873065	0.135707	-0.261194	0.00677498	-0.0831582	0.201643	-0.055162	-0.454339	-0.397146	-0.117489	-0.266288	-0.182504	-0.12762	0.75435	2.00055	-0.013259	-0.323523	-0.192213	0.70012	2.03317
0.86	0.0761514	0.109655	-0.0841862	0.822797	1.15167	-0.216928	-0.168608	-0.192483	-0.176661	0.720721	-0.144748	0.156947	-0.017834	0.0818059	0.134753	-0.264082	0.00682326	-0.0795358	0.199424	-0.0551515	-0.453256	-0.40805	-0.115939	-0.274679	-0.183884	-0.118264	0.758205	2.00031	-0.00910991	-0.327712	-0.196953	0.705565	2.0328
0.87	0.0744182	0.108789	-0.090091	0.832551	1.15291	-0.216038	-0.145097	-0.195487	-0.160186	0.759781	-0.149441	0.13803	-0.0178552	0.0754419	0.13326	-0.265992	0.00687552	-0.0760142	0.197118	-0.0551412	-0.453111	-0.417472	-0.115484	-0.282366	-0.185836	-0.108531	0.762257	2.00189	-0.00540895	-0.331773	-0.201486	0.71205	2.03182
0.88	0.0732608	0.107331	-0.0950515	0.842184	1.15415	-0.215232	-0.122875	-0.196892	-0.144738	0.796145	-0.150556	0.118706	-0.0178763	0.0682329	0.131397	-0.266799	0.00693318	-0.0724991	0.194812	-0.0551309	-0.453823	-0.425578	-0.116192	-0.289384	-0.188126	-0.0988578	0.766295	2.0048	-0.00205034	-0.335766	-0.205726	0.71932	2.03023
0.89	0.0725622	0.105421	-0.0990652	0.851717	1.15538	-0.214508	-0.101944	-0.196997	-0.130711	0.829618	-0.148544	0.0987432	-0.0178974	0.060287	0.129306	-0.266506	0.00699753	-0.0689384	0.192549	-0.0551207	-0.455265	-0.432563	-0.117964	-0.295813	-0.190507	-0.0897284	0.770141	2.00849	0.00112965	-0.33972	-0.209602	0.727105	2.02803
0.9	0.0721978	0.103197	-0.102212	0.86116	1.1566	-0.213857	-0.0822149	-0.196116	-0.118322	0.860103	-0.144033	0.0777793	-0.0179185	0.0517738	0.127104	-0.265222	0.00706964	-0.0653228	0.190327	-0.0551106	-0.457268	-0.43864	-0.120565	-0.301769	-0.192743	-0.0816163	0.773666	2.01243	0.00432525	-0.34364	-0.213069	0.735157	2.02527
0.91	0.072035	0.100793	-0.104634	0.870523	1.1578	-0.213264	-0.0635334	-0.194558	-0.107628	0.887586	-0.137749	0.0554134	-0.0179397	0.0428927	0.124886	-0.263138	0.0071509	-0.0616765	0.188111	-0.0551006	-0.459643	-0.444026	-0.123673	-0.307381	-0.194626	-0.0749316	0.776784	2.01618	0.00773281	-0.347507	-0.216111	0.743264	2.02201
0.92	0.0719562	0.0983312	-0.106503	0.879811	1.15896	-0.212719	-0.0457103	-0.192598	-0.098563	0.912095	-0.130431	0.0313152	-0.0179608	0.0338466	0.122731	-0.260492	0.00724167	-0.0580413	0.185865	-0.0550906	-0.462192	-0.448929	-0.126942	-0.312774	-0.195992	-0.0699709	0.77945	2.01936	0.0115259	-0.351284	-0.218734	0.751266	2.01832
0.93	0.0718649	0.0959141	-0.107993	0.889025	1.16008	-0.212209	-0.0285551	-0.190461	-0.0909724	0.933682	-0.12274	0.00532385	-0.0179819	0.0248135	0.1207	-0.257544	0.0073419	-0.0544638	0.183596	-0.0550807	-0.464735	-0.453529	-0.130053	-0.318057	-0.196728	-0.0668837	0.781649	2.02172	0.0158365	-0.354923	-0.220963	0.759054	2.01434
0.94	0.0716892	0.093619	-0.10925	0.898167	1.16116	-0.211725	-0.0119057	-0.18831	-0.0846571	0.95239	-0.115193	-0.0224865	-0.018003	0.0159279	0.118834	-0.254549	0.00745141	-0.0509863	0.18137	-0.0550709	-0.467125	-0.457968	-0.132753	-0.323304	-0.196783	-0.0656573	0.783383	2.02315	0.0207435	-0.358377	-0.222825	0.766564	2.0102
0.95	0.0713848	0.0914953	-0.110384	0.907236	1.16218	-0.21126	0.00435306	-0.18624	-0.079403	0.968247	-0.108126	-0.0517839	-0.018024	0.00727332	0.117154	-0.251732	0.00757003	-0.0476432	0.179318	-0.0550611	-0.469263	-0.462338	-0.134876	-0.32855	-0.196166	-0.066123	0.784665	2.02364	0.0262697	-0.361603	-0.224345	0.773765	2.00609
0.96	0.0709329	0.0895624	-0.111459	0.916234	1.16315	-0.210809	0.0202834	-0.184279	-0.0750029	0.981259	-0.101687	-0.0820025	-0.0180451	-0.00111546	0.115653	-0.249268	0.0076977	-0.0444609	0.177608	-0.0550515	-0.4711	-0.466678	-0.136354	-0.333788	-0.194935	-0.0679846	0.785513	2.02332	0.032386	-0.364571	-0.225539	0.780643	2.00215
0.97	0.0703349	0.0878101	-0.1125	0.925163	1.16407	-0.21037	0.0358987	-0.182398	-0.0712681	0.991413	-0.0958525	-0.112403	-0.0180661	-0.00924244	0.114302	-0.247276	0.00783441	-0.0414579	0.176411	-0.0550419	-0.472627	-0.470979	-0.137197	-0.338975	-0.193192	-0.0708597	0.785948	2.02242	0.0390222	-0.367262	-0.226409	0.787196	1.99855
0.98	0.0696047	0.0862009	-0.113499	0.934026	1.16495	-0.209942	0.0511763	-0.180516	-0.0680306	0.998688	-0.0904691	-0.142154	-0.0180872	-0.0171364	0.113056	-0.245809	0.00798023	-0.0386446	0.175855	-0.0550324	-0.473869	-0.475183	-0.137477	-0.344037	-0.19107	-0.0743298	0.786001	2.02121	0.0460796	-0.369671	-0.226943	0.793417	1.99539
0.99	0.0687602	0.0846751	-0.114432	0.942823	1.1658	-0.209529	0.0660735	-0.178516	-0.0651406	1.00306	-0.0853031	-0.170424	-0.0181082	-0.024836	0.11185	-0.244868	0.00813524	-0.0360222	0.175994	-0.0550229	-0.474868	-0.479199	-0.137301	-0.348887	-0.188712	-0.0779867	0.785711	2.01998	0.0534445	-0.371799	-0.227122	0.799296	1.99275
1	0.0678162	0.0831576	-0.115268	0.951554	1.16661	-0.209132	0.0805441	-0.176255	-0.0624603	1.00454	-0.08009	-0.196461	-0.0181292	-0.0323777	0.110617	-0.244407	0.00829953	-0.0335807	0.1768	-0.0550136	-0.475669	-0.482912	-0.136782	-0.353434	-0.186265	-0.0814711	0.785137	2.01899	0.0609988	-0.37365	-0.226922	0.804818	1.99066
1.01	0.0667793	0.0815652	-0.115982	0.960219	1.16739	-0.208756	0.0945523	-0.173584	-0.0598592	1.00312	-0.0745787	-0.219654	-0.0181502	-0.0397858	0.109284	-0.24436	0.00847311	-0.0312987	0.178165	-0.0550043	-0.476308	-0.486196	-0.136025	-0.357597	-0.183868	-0.0844978	0.784349	2.01845	0.0686274	-0.375227	-0.22633	0.809978	1.98908
1.02	0.0656462	0.0798156	-0.116564	0.968818	1.16814	-0.208404	0.108082	-0.170358	-0.0572103	0.998869	-0.068566	-0.239574	-0.0181711	-0.0470683	0.107787	-0.244653	0.0086558	-0.0291444	0.179926	-0.0549951	-0.47681	-0.48893	-0.135105	-0.361309	-0.181638	-0.0868667	0.783431	2.01846	0.0762217	-0.376527	-0.225345	0.814783	1.98797
1.03	0.0644046	0.0778364	-0.11702	0.977347	1.16886	-0.208081	0.121143	-0.16645	-0.0543905	0.991865	-0.0619171	-0.255988	-0.0181921	-0.0542155	0.106071	-0.245224	0.00884715	-0.0270797	0.181895	-0.054986	-0.47718	-0.49101	-0.134071	-0.364525	-0.179672	-0.0884626	0.782474	2.01907	0.0836814	-0.377542	-0.22399	0.819265	1.98723
1.04	0.0630368	0.0755738	-0.117373	0.985803	1.16955	-0.207785	0.133767	-0.161768	-0.0512843	0.982224	-0.0545743	-0.268858	-0.018213	-0.0612023	0.104101	-0.246026	0.00904633	-0.0250668	0.18389	-0.0549769	-0.477406	-0.492357	-0.132939	-0.36722	-0.178037	-0.0892481	0.781561	2.02023	0.0909152	-0.378261	-0.222305	0.823478	1.9868
1.05	0.0615215	0.0730006	-0.117665	0.994184	1.1702	-0.207517	0.146008	-0.156255	-0.0477906	0.970091	-0.0465536	-0.278316	-0.0182339	-0.0679932	0.10186	-0.247033	0.00925222	-0.0230755	0.185759	-0.054968	-0.477466	-0.492933	-0.131703	-0.369386	-0.17677	-0.0892515	0.780768	2.02185	0.0978428	-0.378673	-0.220345	0.8275	1.98658
1.06	0.0598369	0.07012	-0.117945	1.00249	1.1708	-0.207278	0.15793	-0.149906	-0.0438307	0.955632	-0.0379345	-0.284633	-0.0182548	-0.0745497	0.0993572	-0.248232	0.00946369	-0.0210906	0.187395	-0.0549591	-0.477332	-0.49274	-0.130341	-0.371027	-0.175879	-0.0885558	0.780146	2.02383	0.104398	-0.378776	-0.218164	0.831417	1.98651
1.07	0.0579637	0.0669657	-0.118266	1.01072	1.17136	-0.207065	0.1696	-0.142764	-0.0393581	0.93902	-0.0288448	-0.288178	-0.0182757	-0.0808377	0.0966261	-0.249614	0.00968002	-0.0191155	0.188743	-0.0549503	-0.476982	-0.491823	-0.128833	-0.372155	-0.17534	-0.0872863	0.779728	2.02605	0.11053	-0.378579	-0.215807	0.835309	1.98654
1.08	0.0558896	0.0635995	-0.118679	1.01887	1.17185	-0.206873	0.181072	-0.134921	-0.0343673	0.920428	-0.0194444	-0.289375	-0.0182966	-0.0868346	0.0937252	-0.251171	0.00990089	-0.0171699	0.1898	-0.0549415	-0.476405	-0.490265	-0.127165	-0.37278	-0.175107	-0.0856001	0.779521	2.02841	0.116207	-0.37811	-0.213296	0.839243	1.98664
1.09	0.053613	0.0601041	-0.119219	1.02695	1.17229	-0.206698	0.192381	-0.126513	-0.0289011	0.900014	-0.00990978	-0.288657	-0.0183175	-0.0925339	0.0907318	-0.252885	0.0101264	-0.0152827	0.190609	-0.0549329	-0.475609	-0.488177	-0.125343	-0.372914	-0.175116	-0.083673	0.77952	2.03081	0.121411	-0.377409	-0.210628	0.843264	1.98678
1.1	0.0511443	0.0565735	-0.119907	1.03495	1.17266	-0.206535	0.203537	-0.117701	-0.0230546	0.877912	-0.000419664	-0.286428	-0.0183384	-0.0979469	0.0877322	-0.254726	0.0103571	-0.01348	0.191248	-0.0549243	-0.47462	-0.485681	-0.123397	-0.372566	-0.175293	-0.0816858	0.779708	2.0332	0.126134	-0.376533	-0.207783	0.847394	1.98695
1.11	0.0485042	0.0531006	-0.120741	1.04289	1.17296	-0.20638	0.214519	-0.108658	-0.0169745	0.854225	0.00885684	-0.283031	-0.0183593	-0.103101	0.0848108	-0.256655	0.0105935	-0.0117717	0.19182	-0.0549158	-0.473485	-0.482895	-0.121378	-0.371744	-0.175563	-0.0798094	0.780067	2.0355	0.130373	-0.375545	-0.204728	0.851638	1.98713
